# xmcd
#
# Track frame offsets:
#	150
#	17881
#	34684
#	51518
#	68499
#	83773
#	97197
#	111968
#	129817
#	143903
#	161423
#	178150
#	193446
#	210296
#	226711
#	243803
#	258617
#	276064
#	291210
#	306974
#
# Disc length: 4292 seconds
#
# Revision: 6
# Processed by: cddbd v1.4PL0 Copyright (c) Steve Scherf et al.
# Submitted via: MusicWizard 6.0.1
#
DISCID=1d10c214
DTITLE=Various Artist - Bravo Hits 31 [CD2)
DYEAR=2000
DGENRE=Hitmix
TTITLE0=Craig David - 7 Days
TTITLE1=Spiller - Groovejet
TTITLE2=Music Instructor feat. Dean - Super Fly
TTITLE3=Darude - Sandstorm
TTITLE4=Mauro Picotto - Komodo-Save A Soul
TTITLE5=Elektrochemie LK - Schall
TTITLE6=Future Breeze - Smile
TTITLE7=Delerium feat. Sarah McLachlan - Silence
TTITLE8=X-Perience - Island Of Dreams
TTITLE9=Baby D. - Let Me Be Your Fantasy
TTITLE10=Modjo - Lady
TTITLE11=Lace - Ring Ring
TTITLE12=ATB feat. York - The Fields Of Love
TTITLE13=Rollergirl - Superstar
TTITLE14=Cherubia - Devil In Disguise
TTITLE15=Bomfunk MC's - B-Boys and Fly Cirls
TTITLE16=Dynamite Deluxe - Grüne Brille
TTITLE17=Papa Roach - Last Resort
TTITLE18=Die toten Hosen - Warum werde ich nicht satt?
TTITLE19=Stefan Raab feat. DJ Bundeskanzler - Ho mir ma ne Flasche Bier
EXTD=
EXTT0=
EXTT1=
EXTT2=
EXTT3=
EXTT4=
EXTT5=
EXTT6=
EXTT7=
EXTT8=
EXTT9=
EXTT10=
EXTT11=
EXTT12=
EXTT13=
EXTT14=
EXTT15=
EXTT16=
EXTT17=
EXTT18=
EXTT19=
PLAYORDER=
